<svg xmlns="http://www.w3.org/2000/svg" xmlns:xlink="http://www.w3.org/1999/xlink" xmlns:lucid="lucid" width="681.4" height="1360"><g transform="translate(-80.00000000000003 -80)" lucid:page-tab-id="P~8citYFHL33"><path d="M0 0h1870.87v2581.67H0z" fill="#fff"/><path d="M141.4 106c0-3.3 2.7-6 6-6h108c3.3 0 6 2.7 6 6v88c0 3.3-2.7 6-6 6h-108c-3.3 0-6-2.7-6-6z" stroke="#5e5e5e" stroke-width="2" fill="#fff"/><use xlink:href="#a" transform="matrix(1,0,0,1,141.40000000000003,100) translate(5.776604938271598 39.65277777777778)"/><use xlink:href="#b" transform="matrix(1,0,0,1,141.40000000000003,100) translate(24.88154320987654 66.31944444444446)"/><path d="M201.4 202v10.05m0 10.06v20.12m0 10.05v20.1m0 10.06v20.1m0 10.06v20.1m0 10.06v20.1m0 10.06v20.1m0 10.06v20.1m0 10.06v20.1m0 10.07v20.1m0 10.07v20.1m0 10.06v20.1m0 10.06V574m0 10.05v20.1m0 10.07v20.1m0 10.06v20.1m0 10.06v20.1m0 10.06v20.1m0 10.06v20.1m0 10.07v20.1m0 10.06v20.1m0 10.05v20.1m0 10.06v20.12m0 10.06v20.1m0 10.06v20.1m0 10.06v20.1m0 10.06v20.1m0 10.06v20.1m0 10.07v20.1m0 10.05v20.1m0 10.06v20.12m0 10.05v20.1m0 10.07v20.1m0 10.06v20.1m0 10.06v20.1m0 10.06v20.1m0 10.06v20.1m0 10.07V1318" stroke="#5e5e5e" stroke-width="2" fill="none"/><path d="M202.4 202.03h-2V201h2zM202.4 1319h-2v-1.03h2z" fill="#5e5e5e"/><path d="M141.4 1326c0-3.3 2.7-6 6-6h108c3.3 0 6 2.7 6 6v88c0 3.3-2.7 6-6 6h-108c-3.3 0-6-2.7-6-6z" stroke="#5e5e5e" stroke-width="2" fill="#fff"/><use xlink:href="#a" transform="matrix(1,0,0,1,141.40000000000003,1320) translate(5.776604938271598 39.65277777777778)"/><use xlink:href="#b" transform="matrix(1,0,0,1,141.40000000000003,1320) translate(24.88154320987654 66.31944444444446)"/><path d="M381.4 106c0-3.3 2.7-6 6-6h108c3.3 0 6 2.7 6 6v88c0 3.3-2.7 6-6 6h-108c-3.3 0-6-2.7-6-6z" stroke="#5e5e5e" stroke-width="2" fill="#fff"/><use xlink:href="#c" transform="matrix(1,0,0,1,381.4,100) translate(29.758086419753084 39.65277777777778)"/><use xlink:href="#b" transform="matrix(1,0,0,1,381.4,100) translate(24.88154320987654 66.31944444444446)"/><path d="M381.4 1326c0-3.3 2.7-6 6-6h108c3.3 0 6 2.7 6 6v88c0 3.3-2.7 6-6 6h-108c-3.3 0-6-2.7-6-6z" stroke="#5e5e5e" stroke-width="2" fill="#fff"/><use xlink:href="#c" transform="matrix(1,0,0,1,381.4,1320) translate(29.758086419753084 39.65277777777778)"/><use xlink:href="#b" transform="matrix(1,0,0,1,381.4,1320) translate(24.88154320987654 66.31944444444446)"/><path d="M441.4 202v10.05m0 10.06v20.12m0 10.05v20.1m0 10.06v20.1m0 10.06v20.1m0 10.06v20.1m0 10.06v20.1m0 10.06v20.1m0 10.06v20.1m0 10.07v20.1m0 10.07v20.1m0 10.06v20.1m0 10.06V574m0 10.05v20.1m0 10.07v20.1m0 10.06v20.1m0 10.06v20.1m0 10.06v20.1m0 10.06v20.1m0 10.07v20.1m0 10.06v20.1m0 10.05v20.1m0 10.06v20.12m0 10.06v20.1m0 10.06v20.1m0 10.06v20.1m0 10.06v20.1m0 10.06v20.1m0 10.07v20.1m0 10.05v20.1m0 10.06v20.12m0 10.05v20.1m0 10.07v20.1m0 10.06v20.1m0 10.06v20.1m0 10.06v20.1m0 10.06v20.1m0 10.07V1318" stroke="#5e5e5e" stroke-width="2" fill="none"/><path d="M442.4 202.03h-2V201h2zM442.4 1319h-2v-1.03h2z" fill="#5e5e5e"/><path d="M621.4 106c0-3.3 2.7-6 6-6h108c3.3 0 6 2.7 6 6v88c0 3.3-2.7 6-6 6h-108c-3.3 0-6-2.7-6-6z" stroke="#5e5e5e" stroke-width="2" fill="#fff"/><use xlink:href="#d" transform="matrix(1,0,0,1,621.4,100) translate(19.325987654320983 39.65277777777778)"/><use xlink:href="#e" transform="matrix(1,0,0,1,621.4,100) translate(23.029691358024685 66.31944444444446)"/><path d="M621.4 1326c0-3.3 2.7-6 6-6h108c3.3 0 6 2.7 6 6v88c0 3.3-2.7 6-6 6h-108c-3.3 0-6-2.7-6-6z" stroke="#5e5e5e" stroke-width="2" fill="#fff"/><use xlink:href="#d" transform="matrix(1,0,0,1,621.4,1320) translate(19.325987654320983 39.65277777777778)"/><use xlink:href="#e" transform="matrix(1,0,0,1,621.4,1320) translate(23.029691358024685 66.31944444444446)"/><path d="M681.4 202v10.05m0 10.06v20.12m0 10.05v20.1m0 10.06v20.1m0 10.06v20.1m0 10.06v20.1m0 10.06v20.1m0 10.06v20.1m0 10.06v20.1m0 10.07v20.1m0 10.07v20.1m0 10.06v20.1m0 10.06V574m0 10.05v20.1m0 10.07v20.1m0 10.06v20.1m0 10.06v20.1m0 10.06v20.1m0 10.06v20.1m0 10.07v20.1m0 10.06v20.1m0 10.05v20.1m0 10.06v20.12m0 10.06v20.1m0 10.06v20.1m0 10.06v20.1m0 10.06v20.1m0 10.06v20.1m0 10.07v20.1m0 10.05v20.1m0 10.06v20.12m0 10.05v20.1m0 10.07v20.1m0 10.06v20.1m0 10.06v20.1m0 10.06v20.1m0 10.06v20.1m0 10.07V1318" stroke="#5e5e5e" stroke-width="2" fill="none"/><path d="M682.4 202.03h-2V201h2zM682.4 1319h-2v-1.03h2z" fill="#5e5e5e"/><path d="M181.4 246.93c0-3.32 2.7-6 6-6h28c3.3 0 6 2.68 6 6v267.5c0 3.3-2.7 6-6 6h-28c-3.3 0-6-2.7-6-6z" stroke="#5e5e5e" stroke-width="2" fill="#fff"/><path d="M181.4 526.43c0-3.32 2.7-6 6-6h28c3.3 0 6 2.68 6 6v666.78c0 3.33-2.7 6-6 6h-28c-3.3 0-6-2.67-6-6z" stroke="#5e5e5e" stroke-width="2" fill="#fff"/><path d="M181.4 1205.2c0-3.3 2.7-6 6-6h28c3.3 0 6 2.7 6 6V1313c0 3.3-2.7 6-6 6h-28c-3.3 0-6-2.7-6-6zM421.4 306.82c0-3.3 2.7-6 6-6h28c3.3 0 6 2.7 6 6v207.6c0 3.32-2.7 6-6 6h-28c-3.3 0-6-2.68-6-6zM421.4 526.43c0-3.32 2.7-6 6-6h28c3.3 0 6 2.68 6 6v666.78c0 3.33-2.7 6-6 6h-28c-3.3 0-6-2.67-6-6zM661.4 586.32c0-3.3 2.7-6 6-6h28c3.3 0 6 2.7 6 6v487.1c0 3.32-2.7 6-6 6h-28c-3.3 0-6-2.68-6-6z" stroke="#5e5e5e" stroke-width="2" fill="#fff"/><path d="M222.4 300.83l180.87 1.82" stroke="#5e5e5e" stroke-width="2" fill="none"/><path d="M222.44 299.83l-.02 2h-.02v-2z" fill="#5e5e5e"/><path d="M418.53 302.8l-14.3 4.5.08-9.28z" stroke="#5e5e5e" stroke-width="2" fill="#5e5e5e"/><use xlink:href="#f" transform="matrix(1,0,0,1,274.54236264490333,276.5045730699748) translate(0 14.222222222222223)"/><use xlink:href="#g" transform="matrix(1,0,0,1,274.54236264490333,276.5045730699748) translate(63.061728395061735 14.222222222222223)"/><path d="M154.95 320.68h80.9l12 12v48h-92.9z" stroke="#5e5e5e" stroke-width="2" fill="#fff"/><path d="M235.85 321.63v11.05h11.05" stroke="#5e5e5e" stroke-width="2" fill="#fff"/><use xlink:href="#h" transform="matrix(1,0,0,1,159.95000000000005,325.67857142857144) translate(8.845679012345684 30.27777777777778)"/><path d="M392.45 400.54h85.9l12 12v48h-97.9z" stroke="#5e5e5e" stroke-width="2" fill="#fff"/><path d="M478.35 401.5v11.04h11.05" stroke="#5e5e5e" stroke-width="2" fill="#fff"/><use xlink:href="#i" transform="matrix(1,0,0,1,397.45,405.5357142857143) translate(8.25925925925926 30.27777777777778)"/><path d="M462.4 580.33l180.68 2" stroke="#5e5e5e" stroke-width="2" fill="none"/><path d="M462.44 579.33l-.03 2v-2z" fill="#5e5e5e"/><path d="M658.34 582.5l-14.32 4.46.1-9.27z" stroke="#5e5e5e" stroke-width="2" fill="#5e5e5e"/><use xlink:href="#j" transform="matrix(1,0,0,1,547.0633954583226,556.0903926707649) translate(0 14.222222222222223)"/><path d="M420.77 518.42H410.7m-10.06 0l-20.13-.02m-10.06 0H350.3m-10.05 0l-20.13-.02m-10.06 0h-20.13m-10.07 0l-20.13-.02m-10.06 0H239.6" stroke="#5e5e5e" stroke-width="2" fill="none"/><path d="M421.17 517.42l.15.56 1.45 1.44h-2.03v-2z" fill="#5e5e5e"/><path d="M224.34 518.35l14.27-4.63V523z" stroke="#5e5e5e" stroke-width="2" fill="#5e5e5e"/><use xlink:href="#k" transform="matrix(1,0,0,1,265.8991277037947,493.0504754825091) translate(0 14.222222222222223)"/><use xlink:href="#l" transform="matrix(1,0,0,1,265.8991277037947,493.0504754825091) translate(56.14814814814816 14.222222222222223)"/><path d="M420.4 779.96h-10.03m-10.03 0H380.3m-10.04 0H350.2m-10.02 0h-20.06m-10.02 0h-20.06m-10.03 0h-20.04m-10.03 0H239.9" stroke="#5e5e5e" stroke-width="2" fill="none"/><path d="M420.4 780.96h-.03v-2h.03z" fill="#5e5e5e"/><path d="M224.64 779.96l14.26-4.63v9.27z" stroke="#5e5e5e" stroke-width="2" fill="#5e5e5e"/><use xlink:href="#m" transform="matrix(1,0,0,1,310.58518518518514,754.6309523809525) translate(0 14.222222222222223)"/><path d="M222.4 720.07h180.5" stroke="#5e5e5e" stroke-width="2" fill="none"/><path d="M222.43 721.07h-.03v-2h.03z" fill="#5e5e5e"/><path d="M418.16 720.07l-14.26 4.64v-9.26z" stroke="#5e5e5e" stroke-width="2" fill="#5e5e5e"/><use xlink:href="#n" transform="matrix(1,0,0,1,292.31358024691355,694.7380952380952) translate(0 14.222222222222223)"/><path d="M126.98 600.18h136.85l12 12v48H126.98z" stroke="#5e5e5e" stroke-width="2" fill="#fff"/><path d="M263.83 601.13v11.05h11.04" stroke="#5e5e5e" stroke-width="2" fill="#fff"/><use xlink:href="#o" transform="matrix(1,0,0,1,131.97500000000002,605.1785714285713) translate(2.308641975308646 30.27777777777778)"/><use xlink:href="#p" transform="matrix(1,0,0,1,131.97500000000002,605.1785714285713) translate(33.17283950617284 30.27777777777778)"/><use xlink:href="#q" transform="matrix(1,0,0,1,131.97500000000002,605.1785714285713) translate(89.90123456790123 30.27777777777778)"/><path d="M641.4 799.82h68l12 12v48h-80z" stroke="#5e5e5e" stroke-width="2" fill="#fff"/><path d="M709.4 800.77v11.05h11.05" stroke="#5e5e5e" stroke-width="2" fill="#fff"/><use xlink:href="#r" transform="matrix(1,0,0,1,646.4,804.8214285714284) translate(18.98148148148148 30.27777777777778)"/><path d="M401.4 879.68h68l12 12v48h-80z" stroke="#5e5e5e" stroke-width="2" fill="#fff"/><path d="M469.4 880.63v11.05h11.05" stroke="#5e5e5e" stroke-width="2" fill="#fff"/><use xlink:href="#s" transform="matrix(1,0,0,1,406.4,884.6785714285714) translate(15.308641975308642 30.27777777777778)"/><path d="M420.53 1196.97H410.5m-10.05 0h-20.1m-10.03 0h-20.08m-10.05 0h-20.1m-10.03 0h-20.1m-10.03 0h-20.1m-10.03 0h-10.03" stroke="#5e5e5e" stroke-width="2" fill="none"/><path d="M421.32 1196.76l1.2 1.2h-2v-2h.6z" fill="#5e5e5e"/><path d="M224.5 1196.97l14.27-4.64v9.28z" stroke="#5e5e5e" stroke-width="2" fill="#5e5e5e"/><use xlink:href="#t" transform="matrix(1,0,0,1,276.04197530864184,1171.6365636981625) translate(0 14.222222222222223)"/><use xlink:href="#u" transform="matrix(1,0,0,1,276.04197530864184,1171.6365636981625) translate(39.50617283950618 14.222222222222223)"/><path d="M126.98 959.54h136.85l12 12v48H126.98z" stroke="#5e5e5e" stroke-width="2" fill="#fff"/><path d="M263.83 960.5v11.04h11.04" stroke="#5e5e5e" stroke-width="2" fill="#fff"/><use xlink:href="#o" transform="matrix(1,0,0,1,131.97500000000002,964.5357142857142) translate(2.308641975308646 30.27777777777778)"/><use xlink:href="#p" transform="matrix(1,0,0,1,131.97500000000002,964.5357142857142) translate(33.17283950617284 30.27777777777778)"/><use xlink:href="#q" transform="matrix(1,0,0,1,131.97500000000002,964.5357142857142) translate(89.90123456790123 30.27777777777778)"/><path d="M660.58 1077.24l-10.04.1m-10.04.12l-20.07.22m-10.04.1l-20.1.23m-10.02.12l-20.08.22m-10.04.1l-20.07.23m-10.05.1l-20.07.23m-10.04.1l-10.04.13" stroke="#5e5e5e" stroke-width="2" fill="none"/><path d="M661.32 1076.98l1.25 1.24-2 .02-.03-2h.58z" fill="#5e5e5e"/><path d="M464.64 1079.4l14.2-4.8.1 9.27z" stroke="#5e5e5e" stroke-width="2" fill="#5e5e5e"/><g><use xlink:href="#v" transform="matrix(1,0,0,1,535.0371585876297,1052.9997334200455) translate(0 14.222222222222223)"/></g><path d="M222.4 1139.32h180.5" stroke="#5e5e5e" stroke-width="2" fill="none"/><path d="M222.43 1140.32h-.03v-2h.03z" fill="#5e5e5e"/><path d="M418.16 1139.32l-14.26 4.64v-9.27z" stroke="#5e5e5e" stroke-width="2" fill="#5e5e5e"/><g><use xlink:href="#n" transform="matrix(1,0,0,1,292.31358024691355,1113.988095238095) translate(0 14.222222222222223)"/></g><path d="M100 1219.07h190.8l12 12v48H100z" stroke="#5e5e5e" stroke-width="2" fill="#fff"/><path d="M290.8 1220.02v11.05h11.05" stroke="#5e5e5e" stroke-width="2" fill="#fff"/><g><use xlink:href="#w" transform="matrix(1,0,0,1,105.00000000000003,1224.0714285714287) translate(22.104938271604937 17.77777777777778)"/><use xlink:href="#x" transform="matrix(1,0,0,1,105.00000000000003,1224.0714285714287) translate(105.99382716049382 17.77777777777778)"/><use xlink:href="#y" transform="matrix(1,0,0,1,105.00000000000003,1224.0714285714287) translate(69.98765432098766 44.44444444444444)"/></g><defs><path fill="#333" d="M205 0l-28-72H64L36 0H1l101-248h38L239 0h-34zm-38-99l-47-123c-12 45-31 82-46 123h93" id="z"/><path fill="#333" d="M115-194c55 1 70 41 70 98S169 2 115 4C84 4 66-9 55-30l1 105H24l-1-265h31l2 30c10-21 28-34 59-34zm-8 174c40 0 45-34 45-75s-6-73-45-74c-42 0-51 32-51 76 0 43 10 73 51 73" id="A"/><path fill="#333" d="M24 0v-261h32V0H24" id="B"/><path fill="#333" d="M24-231v-30h32v30H24zM24 0v-190h32V0H24" id="C"/><path fill="#333" d="M96-169c-40 0-48 33-48 73s9 75 48 75c24 0 41-14 43-38l32 2c-6 37-31 61-74 61-59 0-76-41-82-99-10-93 101-131 147-64 4 7 5 14 7 22l-32 3c-4-21-16-35-41-35" id="D"/><path fill="#333" d="M141-36C126-15 110 5 73 4 37 3 15-17 15-53c-1-64 63-63 125-63 3-35-9-54-41-54-24 1-41 7-42 31l-33-3c5-37 33-52 76-52 45 0 72 20 72 64v82c-1 20 7 32 28 27v20c-31 9-61-2-59-35zM48-53c0 20 12 33 32 33 41-3 63-29 60-74-43 2-92-5-92 41" id="E"/><path fill="#333" d="M59-47c-2 24 18 29 38 22v24C64 9 27 4 27-40v-127H5v-23h24l9-43h21v43h35v23H59v120" id="F"/><path fill="#333" d="M100-194c62-1 85 37 85 99 1 63-27 99-86 99S16-35 15-95c0-66 28-99 85-99zM99-20c44 1 53-31 53-75 0-43-8-75-51-75s-53 32-53 75 10 74 51 75" id="G"/><path fill="#333" d="M117-194c89-4 53 116 60 194h-32v-121c0-31-8-49-39-48C34-167 62-67 57 0H25l-1-190h30c1 10-1 24 2 32 11-22 29-35 61-36" id="H"/><g id="a"><use transform="matrix(0.06172839506172839,0,0,0.06172839506172839,0,0)" xlink:href="#z"/><use transform="matrix(0.06172839506172839,0,0,0.06172839506172839,14.814814814814813,0)" xlink:href="#A"/><use transform="matrix(0.06172839506172839,0,0,0.06172839506172839,27.160493827160494,0)" xlink:href="#A"/><use transform="matrix(0.06172839506172839,0,0,0.06172839506172839,39.50617283950617,0)" xlink:href="#B"/><use transform="matrix(0.06172839506172839,0,0,0.06172839506172839,44.382716049382715,0)" xlink:href="#C"/><use transform="matrix(0.06172839506172839,0,0,0.06172839506172839,49.25925925925926,0)" xlink:href="#D"/><use transform="matrix(0.06172839506172839,0,0,0.06172839506172839,60.37037037037037,0)" xlink:href="#E"/><use transform="matrix(0.06172839506172839,0,0,0.06172839506172839,72.71604938271605,0)" xlink:href="#F"/><use transform="matrix(0.06172839506172839,0,0,0.06172839506172839,78.88888888888889,0)" xlink:href="#C"/><use transform="matrix(0.06172839506172839,0,0,0.06172839506172839,83.76543209876543,0)" xlink:href="#G"/><use transform="matrix(0.06172839506172839,0,0,0.06172839506172839,96.11111111111111,0)" xlink:href="#H"/></g><path fill="#333" d="M127-220V0H93v-220H8v-28h204v28h-85" id="I"/><path fill="#333" d="M106-169C34-169 62-67 57 0H25v-261h32l-1 103c12-21 28-36 61-36 89 0 53 116 60 194h-32v-121c2-32-8-49-39-48" id="J"/><path fill="#333" d="M114-163C36-179 61-72 57 0H25l-1-190h30c1 12-1 29 2 39 6-27 23-49 58-41v29" id="K"/><path fill="#333" d="M100-194c63 0 86 42 84 106H49c0 40 14 67 53 68 26 1 43-12 49-29l28 8c-11 28-37 45-77 45C44 4 14-33 15-96c1-61 26-98 85-98zm52 81c6-60-76-77-97-28-3 7-6 17-6 28h103" id="L"/><path fill="#333" d="M85-194c31 0 48 13 60 33l-1-100h32l1 261h-30c-2-10 0-23-3-31C134-8 116 4 85 4 32 4 16-35 15-94c0-66 23-100 70-100zm9 24c-40 0-46 34-46 75 0 40 6 74 45 74 42 0 51-32 51-76 0-42-9-74-50-73" id="M"/><g id="b"><use transform="matrix(0.06172839506172839,0,0,0.06172839506172839,0,0)" xlink:href="#I"/><use transform="matrix(0.06172839506172839,0,0,0.06172839506172839,13.518518518518517,0)" xlink:href="#J"/><use transform="matrix(0.06172839506172839,0,0,0.06172839506172839,25.864197530864196,0)" xlink:href="#K"/><use transform="matrix(0.06172839506172839,0,0,0.06172839506172839,33.20987654320987,0)" xlink:href="#L"/><use transform="matrix(0.06172839506172839,0,0,0.06172839506172839,45.55555555555555,0)" xlink:href="#E"/><use transform="matrix(0.06172839506172839,0,0,0.06172839506172839,57.90123456790123,0)" xlink:href="#M"/></g><path fill="#333" d="M135-143c-3-34-86-38-87 0 15 53 115 12 119 90S17 21 10-45l28-5c4 36 97 45 98 0-10-56-113-15-118-90-4-57 82-63 122-42 12 7 21 19 24 35" id="N"/><path fill="#333" d="M179-190L93 31C79 59 56 82 12 73V49c39 6 53-20 64-50L1-190h34L92-34l54-156h33" id="O"/><g id="c"><use transform="matrix(0.06172839506172839,0,0,0.06172839506172839,0,0)" xlink:href="#z"/><use transform="matrix(0.06172839506172839,0,0,0.06172839506172839,14.814814814814813,0)" xlink:href="#N"/><use transform="matrix(0.06172839506172839,0,0,0.06172839506172839,25.925925925925924,0)" xlink:href="#O"/><use transform="matrix(0.06172839506172839,0,0,0.06172839506172839,37.03703703703704,0)" xlink:href="#H"/><use transform="matrix(0.06172839506172839,0,0,0.06172839506172839,49.382716049382715,0)" xlink:href="#D"/></g><path fill="#333" d="M30 0v-248h187v28H63v79h144v27H63v87h162V0H30" id="P"/><path fill="#333" d="M141 0L90-78 38 0H4l68-98-65-92h35l48 74 47-74h35l-64 92 68 98h-35" id="Q"/><g id="d"><use transform="matrix(0.06172839506172839,0,0,0.06172839506172839,0,0)" xlink:href="#P"/><use transform="matrix(0.06172839506172839,0,0,0.06172839506172839,14.814814814814813,0)" xlink:href="#Q"/><use transform="matrix(0.06172839506172839,0,0,0.06172839506172839,25.925925925925924,0)" xlink:href="#F"/><use transform="matrix(0.06172839506172839,0,0,0.06172839506172839,32.098765432098766,0)" xlink:href="#L"/><use transform="matrix(0.06172839506172839,0,0,0.06172839506172839,44.44444444444444,0)" xlink:href="#K"/><use transform="matrix(0.06172839506172839,0,0,0.06172839506172839,51.79012345679012,0)" xlink:href="#H"/><use transform="matrix(0.06172839506172839,0,0,0.06172839506172839,64.1358024691358,0)" xlink:href="#E"/><use transform="matrix(0.06172839506172839,0,0,0.06172839506172839,76.48148148148148,0)" xlink:href="#B"/></g><path fill="#333" d="M185-189c-5-48-123-54-124 2 14 75 158 14 163 119 3 78-121 87-175 55-17-10-28-26-33-46l33-7c5 56 141 63 141-1 0-78-155-14-162-118-5-82 145-84 179-34 5 7 8 16 11 25" id="R"/><path fill="#333" d="M108 0H70L1-190h34L89-25l56-165h34" id="S"/><g id="e"><use transform="matrix(0.06172839506172839,0,0,0.06172839506172839,0,0)" xlink:href="#R"/><use transform="matrix(0.06172839506172839,0,0,0.06172839506172839,14.814814814814813,0)" xlink:href="#L"/><use transform="matrix(0.06172839506172839,0,0,0.06172839506172839,27.160493827160494,0)" xlink:href="#K"/><use transform="matrix(0.06172839506172839,0,0,0.06172839506172839,34.50617283950617,0)" xlink:href="#S"/><use transform="matrix(0.06172839506172839,0,0,0.06172839506172839,45.61728395061728,0)" xlink:href="#C"/><use transform="matrix(0.06172839506172839,0,0,0.06172839506172839,50.49382716049382,0)" xlink:href="#D"/><use transform="matrix(0.06172839506172839,0,0,0.06172839506172839,61.60493827160494,0)" xlink:href="#L"/></g><path fill="#333" d="M137-138c1-29-70-34-71-4 15 46 118 7 119 86 1 83-164 76-172 9l43-7c4 19 20 25 44 25 33 8 57-30 24-41C81-84 22-81 20-136c-2-80 154-74 161-7" id="T"/><path fill="#333" d="M85 4C-2 5 27-109 22-190h50c7 57-23 150 33 157 60-5 35-97 40-157h50l1 190h-47c-2-12 1-28-3-38-12 25-28 42-61 42" id="U"/><path fill="#333" d="M135-194c52 0 70 43 70 98 0 56-19 99-73 100-30 1-46-15-58-35L72 0H24l1-261h50v104c11-23 29-37 60-37zM114-30c31 0 40-27 40-66 0-37-7-63-39-63s-41 28-41 65c0 36 8 64 40 64" id="V"/><path fill="#333" d="M220-157c-53 9-28 100-34 157h-49v-107c1-27-5-49-29-50C55-147 81-57 75 0H25l-1-190h47c2 12-1 28 3 38 10-53 101-56 108 0 13-22 24-43 59-42 82 1 51 116 57 194h-49v-107c-1-25-5-48-29-50" id="W"/><path fill="#333" d="M25-224v-37h50v37H25zM25 0v-190h50V0H25" id="X"/><path fill="#333" d="M115-3C79 11 28 4 28-45v-112H4v-33h27l15-45h31v45h36v33H77v99c-1 23 16 31 38 25v30" id="Y"/><g id="f"><use transform="matrix(0.04938271604938272,0,0,0.04938271604938272,0,0)" xlink:href="#T"/><use transform="matrix(0.04938271604938272,0,0,0.04938271604938272,9.876543209876544,0)" xlink:href="#U"/><use transform="matrix(0.04938271604938272,0,0,0.04938271604938272,20.69135802469136,0)" xlink:href="#V"/><use transform="matrix(0.04938271604938272,0,0,0.04938271604938272,31.506172839506174,0)" xlink:href="#W"/><use transform="matrix(0.04938271604938272,0,0,0.04938271604938272,47.308641975308646,0)" xlink:href="#X"/><use transform="matrix(0.04938271604938272,0,0,0.04938271604938272,52.24691358024692,0)" xlink:href="#Y"/></g><path fill="#333" d="M133-34C117-15 103 5 69 4 32 3 11-16 11-54c-1-60 55-63 116-61 1-26-3-47-28-47-18 1-26 9-28 27l-52-2c7-38 36-58 82-57s74 22 75 68l1 82c-1 14 12 18 25 15v27c-30 8-71 5-69-32zm-48 3c29 0 43-24 42-57-32 0-66-3-65 30 0 17 8 27 23 27" id="Z"/><path fill="#333" d="M147 0L96-86 75-71V0H25v-261h50v150l67-79h53l-66 74L201 0h-54" id="aa"/><g id="g"><use transform="matrix(0.04938271604938272,0,0,0.04938271604938272,0,0)" xlink:href="#Y"/><use transform="matrix(0.04938271604938272,0,0,0.04938271604938272,5.8765432098765435,0)" xlink:href="#Z"/><use transform="matrix(0.04938271604938272,0,0,0.04938271604938272,15.753086419753087,0)" xlink:href="#T"/><use transform="matrix(0.04938271604938272,0,0,0.04938271604938272,25.629629629629633,0)" xlink:href="#aa"/></g><path fill="#333" d="M84 4C-5 8 30-112 23-190h32v120c0 31 7 50 39 49 72-2 45-101 50-169h31l1 190h-30c-1-10 1-25-2-33-11 22-28 36-60 37" id="ab"/><path fill="#333" d="M115-194c53 0 69 39 70 98 0 66-23 100-70 100C84 3 66-7 56-30L54 0H23l1-261h32v101c10-23 28-34 59-34zm-8 174c40 0 45-34 45-75 0-40-5-75-45-74-42 0-51 32-51 76 0 43 10 73 51 73" id="ac"/><path fill="#333" d="M210-169c-67 3-38 105-44 169h-31v-121c0-29-5-50-35-48C34-165 62-65 56 0H25l-1-190h30c1 10-1 24 2 32 10-44 99-50 107 0 11-21 27-35 58-36 85-2 47 119 55 194h-31v-121c0-29-5-49-35-48" id="ad"/><g id="h"><use transform="matrix(0.06172839506172839,0,0,0.06172839506172839,0,0)" xlink:href="#N"/><use transform="matrix(0.06172839506172839,0,0,0.06172839506172839,11.11111111111111,0)" xlink:href="#ab"/><use transform="matrix(0.06172839506172839,0,0,0.06172839506172839,23.45679012345679,0)" xlink:href="#ac"/><use transform="matrix(0.06172839506172839,0,0,0.06172839506172839,35.80246913580247,0)" xlink:href="#ad"/><use transform="matrix(0.06172839506172839,0,0,0.06172839506172839,54.25925925925925,0)" xlink:href="#C"/><use transform="matrix(0.06172839506172839,0,0,0.06172839506172839,59.1358024691358,0)" xlink:href="#F"/></g><g id="i"><use transform="matrix(0.06172839506172839,0,0,0.06172839506172839,0,0)" xlink:href="#K"/><use transform="matrix(0.06172839506172839,0,0,0.06172839506172839,7.345679012345679,0)" xlink:href="#L"/><use transform="matrix(0.06172839506172839,0,0,0.06172839506172839,19.691358024691358,0)" xlink:href="#D"/><use transform="matrix(0.06172839506172839,0,0,0.06172839506172839,30.80246913580247,0)" xlink:href="#L"/><use transform="matrix(0.06172839506172839,0,0,0.06172839506172839,43.148148148148145,0)" xlink:href="#C"/><use transform="matrix(0.06172839506172839,0,0,0.06172839506172839,48.02469135802469,0)" xlink:href="#S"/><use transform="matrix(0.06172839506172839,0,0,0.06172839506172839,59.1358024691358,0)" xlink:href="#L"/></g><path fill="#333" d="M190-63c-7 42-38 67-86 67-59 0-84-38-90-98-12-110 154-137 174-36l-49 2c-2-19-15-32-35-32-30 0-35 28-38 64-6 74 65 87 74 30" id="ae"/><path fill="#333" d="M25 0v-261h50V0H25" id="af"/><g id="j"><use transform="matrix(0.04938271604938272,0,0,0.04938271604938272,0,0)" xlink:href="#ae"/><use transform="matrix(0.04938271604938272,0,0,0.04938271604938272,9.876543209876544,0)" xlink:href="#Z"/><use transform="matrix(0.04938271604938272,0,0,0.04938271604938272,19.75308641975309,0)" xlink:href="#af"/><use transform="matrix(0.04938271604938272,0,0,0.04938271604938272,24.69135802469136,0)" xlink:href="#af"/></g><path fill="#333" d="M135-150c-39-12-60 13-60 57V0H25l-1-190h47c2 13-1 29 3 40 6-28 27-53 61-41v41" id="ag"/><path fill="#333" d="M185-48c-13 30-37 53-82 52C43 2 14-33 14-96s30-98 90-98c62 0 83 45 84 108H66c0 31 8 55 39 56 18 0 30-7 34-22zm-45-69c5-46-57-63-70-21-2 6-4 13-4 21h74" id="ah"/><path fill="#333" d="M135-194c87-1 58 113 63 194h-50c-7-57 23-157-34-157-59 0-34 97-39 157H25l-1-190h47c2 12-1 28 3 38 12-26 28-41 61-42" id="ai"/><g id="k"><use transform="matrix(0.04938271604938272,0,0,0.04938271604938272,0,0)" xlink:href="#ag"/><use transform="matrix(0.04938271604938272,0,0,0.04938271604938272,6.913580246913581,0)" xlink:href="#ah"/><use transform="matrix(0.04938271604938272,0,0,0.04938271604938272,16.790123456790127,0)" xlink:href="#Y"/><use transform="matrix(0.04938271604938272,0,0,0.04938271604938272,22.66666666666667,0)" xlink:href="#U"/><use transform="matrix(0.04938271604938272,0,0,0.04938271604938272,33.48148148148149,0)" xlink:href="#ag"/><use transform="matrix(0.04938271604938272,0,0,0.04938271604938272,40.39506172839507,0)" xlink:href="#ai"/></g><path fill="#333" d="M76-208v77h127v40H76V0H24v-248h183v40H76" id="aj"/><g id="l"><use transform="matrix(0.04938271604938272,0,0,0.04938271604938272,0,0)" xlink:href="#aj"/><use transform="matrix(0.04938271604938272,0,0,0.04938271604938272,10.814814814814815,0)" xlink:href="#U"/><use transform="matrix(0.04938271604938272,0,0,0.04938271604938272,21.62962962962963,0)" xlink:href="#Y"/><use transform="matrix(0.04938271604938272,0,0,0.04938271604938272,27.506172839506174,0)" xlink:href="#U"/><use transform="matrix(0.04938271604938272,0,0,0.04938271604938272,38.32098765432099,0)" xlink:href="#ag"/><use transform="matrix(0.04938271604938272,0,0,0.04938271604938272,45.23456790123457,0)" xlink:href="#ah"/></g><path fill="#333" d="M110-194c64 0 96 36 96 99 0 64-35 99-97 99-61 0-95-36-95-99 0-62 34-99 96-99zm-1 164c35 0 45-28 45-65 0-40-10-65-43-65-34 0-45 26-45 65 0 36 10 65 43 65" id="ak"/><g id="m"><use transform="matrix(0.04938271604938272,0,0,0.04938271604938272,0,0)" xlink:href="#ai"/><use transform="matrix(0.04938271604938272,0,0,0.04938271604938272,10.814814814814815,0)" xlink:href="#ak"/></g><path fill="#333" d="M88-194c31-1 46 15 58 34l-1-101h50l1 261h-48c-2-10 0-23-3-31C134-8 116 4 84 4 32 4 16-41 15-95c0-56 19-97 73-99zm17 164c33 0 40-30 41-66 1-37-9-64-41-64s-38 30-39 65c0 43 13 65 39 65" id="al"/><path fill="#333" d="M123 10C108 53 80 86 19 72V37c35 8 53-11 59-39L3-190h52l48 148c12-52 28-100 44-148h51" id="am"/><path fill="#333" d="M110-251c83-7 118 89 53 130-17 10-36 21-38 46H78c2-56 65-53 71-103 2-21-15-35-38-34-25 1-41 14-44 38l-50-2c6-48 39-70 93-75zM77 0v-47h51V0H77" id="an"/><g id="n"><use transform="matrix(0.04938271604938272,0,0,0.04938271604938272,0,0)" xlink:href="#ag"/><use transform="matrix(0.04938271604938272,0,0,0.04938271604938272,6.913580246913581,0)" xlink:href="#ah"/><use transform="matrix(0.04938271604938272,0,0,0.04938271604938272,16.790123456790127,0)" xlink:href="#Z"/><use transform="matrix(0.04938271604938272,0,0,0.04938271604938272,26.666666666666668,0)" xlink:href="#al"/><use transform="matrix(0.04938271604938272,0,0,0.04938271604938272,37.48148148148149,0)" xlink:href="#am"/><use transform="matrix(0.04938271604938272,0,0,0.04938271604938272,47.35802469135803,0)" xlink:href="#an"/></g><g id="o"><use transform="matrix(0.06172839506172839,0,0,0.06172839506172839,0,0)" xlink:href="#M"/><use transform="matrix(0.06172839506172839,0,0,0.06172839506172839,12.345679012345679,0)" xlink:href="#G"/></g><g id="p"><use transform="matrix(0.06172839506172839,0,0,0.06172839506172839,0,0)" xlink:href="#G"/><use transform="matrix(0.06172839506172839,0,0,0.06172839506172839,12.345679012345679,0)" xlink:href="#F"/><use transform="matrix(0.06172839506172839,0,0,0.06172839506172839,18.51851851851852,0)" xlink:href="#J"/><use transform="matrix(0.06172839506172839,0,0,0.06172839506172839,30.864197530864196,0)" xlink:href="#L"/><use transform="matrix(0.06172839506172839,0,0,0.06172839506172839,43.20987654320987,0)" xlink:href="#K"/></g><path fill="#333" d="M206 0h-36l-40-164L89 0H53L-1-190h32L70-26l43-164h34l41 164 42-164h31" id="ao"/><path fill="#333" d="M143 0L79-87 56-68V0H24v-261h32v163l83-92h37l-77 82L181 0h-38" id="ap"/><g id="q"><use transform="matrix(0.06172839506172839,0,0,0.06172839506172839,0,0)" xlink:href="#ao"/><use transform="matrix(0.06172839506172839,0,0,0.06172839506172839,15.987654320987653,0)" xlink:href="#G"/><use transform="matrix(0.06172839506172839,0,0,0.06172839506172839,28.333333333333332,0)" xlink:href="#K"/><use transform="matrix(0.06172839506172839,0,0,0.06172839506172839,35.67901234567901,0)" xlink:href="#ap"/></g><g id="r"><use transform="matrix(0.06172839506172839,0,0,0.06172839506172839,0,0)" xlink:href="#K"/><use transform="matrix(0.06172839506172839,0,0,0.06172839506172839,7.345679012345679,0)" xlink:href="#ab"/><use transform="matrix(0.06172839506172839,0,0,0.06172839506172839,19.691358024691358,0)" xlink:href="#H"/></g><g id="s"><use transform="matrix(0.06172839506172839,0,0,0.06172839506172839,0,0)" xlink:href="#ao"/><use transform="matrix(0.06172839506172839,0,0,0.06172839506172839,15.987654320987653,0)" xlink:href="#E"/><use transform="matrix(0.06172839506172839,0,0,0.06172839506172839,28.333333333333332,0)" xlink:href="#C"/><use transform="matrix(0.06172839506172839,0,0,0.06172839506172839,33.20987654320987,0)" xlink:href="#F"/></g><path fill="#333" d="M76-54c-1 42 2 86-19 110H24C36 42 46 24 48 0H25v-54h51" id="aq"/><g id="t"><use transform="matrix(0.04938271604938272,0,0,0.04938271604938272,0,0)" xlink:href="#am"/><use transform="matrix(0.04938271604938272,0,0,0.04938271604938272,9.876543209876544,0)" xlink:href="#ah"/><use transform="matrix(0.04938271604938272,0,0,0.04938271604938272,19.75308641975309,0)" xlink:href="#T"/><use transform="matrix(0.04938271604938272,0,0,0.04938271604938272,29.629629629629633,0)" xlink:href="#aq"/></g><g id="u"><use transform="matrix(0.04938271604938272,0,0,0.04938271604938272,0,0)" xlink:href="#ag"/><use transform="matrix(0.04938271604938272,0,0,0.04938271604938272,6.913580246913581,0)" xlink:href="#ah"/><use transform="matrix(0.04938271604938272,0,0,0.04938271604938272,16.790123456790127,0)" xlink:href="#Y"/><use transform="matrix(0.04938271604938272,0,0,0.04938271604938272,22.66666666666667,0)" xlink:href="#U"/><use transform="matrix(0.04938271604938272,0,0,0.04938271604938272,33.48148148148149,0)" xlink:href="#ag"/><use transform="matrix(0.04938271604938272,0,0,0.04938271604938272,40.39506172839507,0)" xlink:href="#ai"/></g><g id="v"><use transform="matrix(0.04938271604938272,0,0,0.04938271604938272,0,0)" xlink:href="#ag"/><use transform="matrix(0.04938271604938272,0,0,0.04938271604938272,6.913580246913581,0)" xlink:href="#ah"/><use transform="matrix(0.04938271604938272,0,0,0.04938271604938272,16.790123456790127,0)" xlink:href="#Y"/><use transform="matrix(0.04938271604938272,0,0,0.04938271604938272,22.66666666666667,0)" xlink:href="#U"/><use transform="matrix(0.04938271604938272,0,0,0.04938271604938272,33.48148148148149,0)" xlink:href="#ag"/><use transform="matrix(0.04938271604938272,0,0,0.04938271604938272,40.39506172839507,0)" xlink:href="#ai"/></g><g id="w"><use transform="matrix(0.06172839506172839,0,0,0.06172839506172839,0,0)" xlink:href="#A"/><use transform="matrix(0.06172839506172839,0,0,0.06172839506172839,12.345679012345679,0)" xlink:href="#K"/><use transform="matrix(0.06172839506172839,0,0,0.06172839506172839,19.691358024691358,0)" xlink:href="#G"/><use transform="matrix(0.06172839506172839,0,0,0.06172839506172839,32.03703703703704,0)" xlink:href="#D"/><use transform="matrix(0.06172839506172839,0,0,0.06172839506172839,43.14814814814815,0)" xlink:href="#L"/><use transform="matrix(0.06172839506172839,0,0,0.06172839506172839,55.49382716049383,0)" xlink:href="#N"/><use transform="matrix(0.06172839506172839,0,0,0.06172839506172839,66.60493827160494,0)" xlink:href="#N"/></g><g id="x"><use transform="matrix(0.06172839506172839,0,0,0.06172839506172839,0,0)" xlink:href="#K"/><use transform="matrix(0.06172839506172839,0,0,0.06172839506172839,7.345679012345679,0)" xlink:href="#L"/><use transform="matrix(0.06172839506172839,0,0,0.06172839506172839,19.691358024691358,0)" xlink:href="#F"/><use transform="matrix(0.06172839506172839,0,0,0.06172839506172839,25.864197530864196,0)" xlink:href="#ab"/><use transform="matrix(0.06172839506172839,0,0,0.06172839506172839,38.20987654320987,0)" xlink:href="#K"/><use transform="matrix(0.06172839506172839,0,0,0.06172839506172839,45.55555555555555,0)" xlink:href="#H"/></g><g id="y"><use transform="matrix(0.06172839506172839,0,0,0.06172839506172839,0,0)" xlink:href="#S"/><use transform="matrix(0.06172839506172839,0,0,0.06172839506172839,11.11111111111111,0)" xlink:href="#E"/><use transform="matrix(0.06172839506172839,0,0,0.06172839506172839,23.45679012345679,0)" xlink:href="#B"/><use transform="matrix(0.06172839506172839,0,0,0.06172839506172839,28.333333333333336,0)" xlink:href="#ab"/><use transform="matrix(0.06172839506172839,0,0,0.06172839506172839,40.67901234567901,0)" xlink:href="#L"/></g></defs></g></svg>